<svg width="51" height="51" viewBox="0 0 512 512" fill="none" xmlns="http://www.w3.org/2000/svg">
<g clip-path="url(#clip0_105_2262)">
<path fill-rule="evenodd" clip-rule="evenodd" d="M0 256C0 346.779 47.2508 426.523 118.5 471.977L190 449.5V70L118.5 40.0227C47.2508 85.4774 0 165.221 0 256Z" fill="#F0F0F0"/>
<path d="M512.297 256C512.297 114.616 396.993 0 254.761 0C204.38 0 157.386 14.395 117.691 39.251L174.141 63.092L98 95.25L174.141 127.407L98 159.563L174.141 191.718L98 223.869L174.141 256.018L98 288.174L174.141 320.328L98 352.479L174.141 384.633L98 416.789L174.141 448.94L117.717 472.768C157.406 497.612 204.391 512 254.761 512C396.993 512 512.297 397.384 512.297 256Z" fill="#751A46"/>
</g>
<defs>
<clipPath id="clip0_105_2262">
<rect width="512" height="512" fill="white"/>
</clipPath>
</defs>
</svg>
