<svg width="50" height="50" viewBox="0 0 50 50" fill="none" xmlns="http://www.w3.org/2000/svg">
<g clip-path="url(#clip0_402_1394)">
<path d="M25 50C38.8071 50 50 38.8071 50 25C50 11.1929 38.8071 0 25 0C11.1929 0 0 11.1929 0 25C0 38.8071 11.1929 50 25 50Z" fill="#F0F0F0"/>
<path d="M33.6954 25.0001C33.6954 27.174 29.8022 32.6087 24.9998 32.6087C20.1974 32.6087 16.3042 27.174 16.3042 25.0001C16.3042 20.1975 20.1974 16.3044 24.9998 16.3044C29.8022 16.3044 33.6954 20.1975 33.6954 25.0001Z" fill="#D80027"/>
<path d="M33.6998 25C33.6998 29.8026 29.8066 33.6956 25.0042 33.6956C20.2018 33.6956 16.3086 29.8026 16.3086 25" fill="#0052B4"/>
<path d="M23.4375 26.1719C23.4375 28.8686 25.6236 31.0547 28.3203 31.0547C30.1074 31.0547 31.8394 29.248 32.5213 28.6621C33.2031 28.0762 33.5938 25.9096 33.5938 25C33.5938 22.3033 31.017 21.2891 28.3203 21.2891C25.6236 21.2891 23.4375 23.4752 23.4375 26.1719Z" fill="#0052B4"/>
<path d="M24.1211 23.8281C24.1211 21.1314 23.8881 18.9453 21.1914 18.9453C19.4043 18.9453 19.1389 19.5312 18.457 20.1172C17.7752 20.7031 16.3086 24.0904 16.3086 25C16.3086 27.6967 18.4947 28.0762 21.1914 28.0762C23.8881 28.0762 24.1211 26.5248 24.1211 23.8281Z" fill="#D80027"/>
<path d="M34.2163 32.6863L36.5217 30.3809L38.0587 31.9178L35.7533 34.2232L34.2163 32.6863Z" fill="black"/>
<path d="M30.3726 36.5288L32.678 34.2234L34.2149 35.7604L31.9095 38.0658L30.3726 36.5288Z" fill="black"/>
<path d="M38.8276 37.2969L41.133 34.9915L42.67 36.5284L40.3646 38.8338L38.8276 37.2969Z" fill="black"/>
<path d="M34.9839 41.1401L37.2893 38.8347L38.8263 40.3717L36.5209 42.6771L34.9839 41.1401Z" fill="black"/>
<path d="M36.522 34.9919L38.8274 32.6865L40.3644 34.2235L38.0589 36.5289L36.522 34.9919Z" fill="black"/>
<path d="M32.6792 38.8342L34.9846 36.5288L36.5216 38.0658L34.2162 40.3712L32.6792 38.8342Z" fill="black"/>
<path d="M38.8379 17.3179L32.6901 11.1701L34.2271 9.63311L40.3749 15.7809L38.8379 17.3179Z" fill="black"/>
<path d="M32.6885 15.7815L30.3831 13.4761L31.92 11.9392L34.2254 14.2446L32.6885 15.7815Z" fill="black"/>
<path d="M36.5312 19.625L34.2258 17.3196L35.7627 15.7827L38.0681 18.0881L36.5312 19.625Z" fill="black"/>
<path d="M37.2988 11.1699L34.9934 8.86451L36.5304 7.32754L38.8358 9.63296L37.2988 11.1699Z" fill="black"/>
<path d="M41.1436 15.0137L38.8381 12.7083L40.3751 11.1713L42.6805 13.4767L41.1436 15.0137Z" fill="black"/>
<path d="M8.86279 34.9875L15.0106 41.1353L13.4736 42.6723L7.32583 36.5245L8.86279 34.9875Z" fill="black"/>
<path d="M15.0103 36.5232L17.3157 38.8286L15.7788 40.3655L13.4734 38.0601L15.0103 36.5232Z" fill="black"/>
<path d="M11.1675 32.6816L13.4729 34.9871L11.9359 36.524L9.63052 34.2186L11.1675 32.6816Z" fill="black"/>
<path d="M13.4731 30.3755L19.6209 36.5233L18.084 38.0602L11.9362 31.9125L13.4731 30.3755Z" fill="black"/>
<path d="M15.0098 8.85962L8.86197 15.0074L7.32501 13.4704L13.4728 7.32265L15.0098 8.85962Z" fill="black"/>
<path d="M17.3154 11.1648L11.1676 17.3126L9.63067 15.7756L15.7785 9.62783L17.3154 11.1648Z" fill="black"/>
<path d="M19.623 13.4717L13.4753 19.6195L11.9384 18.0826L18.0861 11.9348L19.623 13.4717Z" fill="black"/>
</g>
<defs>
<clipPath id="clip0_402_1394">
<rect width="50" height="50" fill="white"/>
</clipPath>
</defs>
</svg>
