<svg width="51" height="51" viewBox="0 0 512 512" fill="none" xmlns="http://www.w3.org/2000/svg">
<g clip-path="url(#clip0_105_1151)">
<path d="M256 512C397.385 512 512 397.385 512 256C512 114.615 397.385 0 256 0C114.615 0 0 114.615 0 256C0 397.385 114.615 512 256 512Z" fill="#F0F0F0"/>
<path d="M303.751 287.667L351 261.533L327.376 248.467V222.333L280.125 248.467L303.751 196.2H280.125L256.5 157L232.875 196.2H209.249L232.875 248.467L185.624 222.333V248.467L162 261.533L209.249 287.667L197.437 313.8H253V353H264V313.8H315.563L303.751 287.667Z" fill="#D80027"/>
<path d="M512 256C512 154.506 452.935 66.81 367.304 25.402V486.597C452.935 445.19 512 357.494 512 256Z" fill="#D80027"/>
<path d="M0 255C0 352.27 53.0661 436.315 130 476V34C53.0661 73.6845 0 157.73 0 255Z" fill="#D80027"/>
</g>
<defs>
<clipPath id="clip0_105_1151">
<rect width="512" height="512" fill="white"/>
</clipPath>
</defs>
</svg>
