<svg width="50" height="50" viewBox="0 0 50 50" fill="none" xmlns="http://www.w3.org/2000/svg">
<g clip-path="url(#clip0_402_1423)">
<path d="M0 24.9999C0 28.0579 0.550098 30.9872 1.55498 33.6955L25 35.8694L48.445 33.6955C49.4499 30.9872 50 28.0579 50 24.9999C50 21.9419 49.4499 19.0126 48.445 16.3043L25 14.1304L1.55498 16.3043C0.550098 19.0126 0 21.9419 0 24.9999H0Z" fill="#FFDA44"/>
<path d="M48.4447 16.3044C44.9124 6.78447 35.7488 0 24.9997 0C14.2506 0 5.08701 6.78447 1.55469 16.3044H48.4447Z" fill="#D80027"/>
<path d="M1.55469 33.6956C5.08701 43.2155 14.2506 49.9999 24.9997 49.9999C35.7488 49.9999 44.9124 43.2155 48.4447 33.6956H1.55469Z" fill="#D80027"/>
<path d="M6.83594 19.5312H15.2344V27.2461H11.0352H6.83594V19.5312Z" fill="#D80027"/>
<ellipse cx="11.0352" cy="27.5391" rx="4.19922" ry="3.02734" fill="#D80027"/>
<rect x="10.4492" y="19.5312" width="4.78516" height="5.37109" fill="#F0F0F0"/>
</g>
<defs>
<clipPath id="clip0_402_1423">
<rect width="50" height="50" fill="white"/>
</clipPath>
</defs>
</svg>
