<svg width="50" height="50" viewBox="0 0 50 50" fill="none" xmlns="http://www.w3.org/2000/svg">
<g clip-path="url(#clip0_415_1072)">
<path fill-rule="evenodd" clip-rule="evenodd" d="M0 25C0 33.8652 4.61434 41.6526 11.5723 46.0915L18.5547 43.8965V6.83594L11.5723 3.90847C4.61434 8.3474 0 16.1348 0 25Z" fill="#F0F0F0"/>
<path d="M50.029 25C50.029 11.193 38.7689 0 24.879 0C19.959 0 15.3697 1.40576 11.4933 3.83311L17.006 6.16133L9.57031 9.30176L17.006 12.4421L9.57031 15.5823L17.006 18.7225L9.57031 21.8622L17.006 25.0018L9.57031 28.142L17.006 31.282L9.57031 34.4218L17.006 37.5618L9.57031 40.7021L17.006 43.8418L11.4958 46.1688C15.3717 48.5949 19.96 50 24.879 50C38.7689 50 50.029 38.807 50.029 25Z" fill="#751A46"/>
</g>
<defs>
<clipPath id="clip0_415_1072">
<rect width="50" height="50" fill="white"/>
</clipPath>
</defs>
</svg>
