<svg width="50" height="50" viewBox="0 0 50 50" fill="none" xmlns="http://www.w3.org/2000/svg">
<g clip-path="url(#clip0_415_1042)">
<path d="M25 50C38.8071 50 50 38.8071 50 25C50 11.1929 38.8071 0 25 0C11.1929 0 0 11.1929 0 25C0 38.8071 11.1929 50 25 50Z" fill="#F0F0F0"/>
<path d="M29.6631 28.0924L34.2773 25.5403L31.9703 24.2643V21.7122L27.356 24.2643L29.6631 19.1601H27.356L25.0488 15.332L22.7417 19.1601H20.4345L22.7417 24.2643L18.1274 21.7122V24.2643L15.8203 25.5403L20.4345 28.0924L19.281 30.6446H24.707V34.4727H25.7812V30.6446H30.8167L29.6631 28.0924Z" fill="#D80027"/>
<path d="M50.0001 25C50.0001 15.0885 44.232 6.52446 35.8696 2.48071V47.5193C44.232 43.4756 50.0001 34.9116 50.0001 25V25Z" fill="#D80027"/>
<path d="M0 24.9023C0 34.4013 5.18224 42.6089 12.6953 46.4844V3.32031C5.18224 7.19575 0 15.4034 0 24.9023Z" fill="#D80027"/>
</g>
<defs>
<clipPath id="clip0_415_1042">
<rect width="50" height="50" fill="white"/>
</clipPath>
</defs>
</svg>
